<?xml version="1.0" encoding="UTF-8" standalone="no"?>
<!DOCTYPE svg PUBLIC "-//W3C//DTD SVG 1.1//EN" "http://www.w3.org/Graphics/SVG/1.1/DTD/svg11.dtd">
<svg>
<metadata>
Created by FontForge 20100429 at Sun May 18 15:16:12 2014
 By www-data
Copyright terricolabeni 2014
</metadata>
<defs>
<font id="Totem" horiz-adv-x="639">
  <font-face font-family="Totem" font-weight="400" font-stretch="normal" units-per-em="1024" panose-1="0 0 4 0 0 0 0 0 0 0" ascent="819" descent="-205" x-height="960" cap-height="960" bbox="0 -64 960 960" underline-thickness="51" underline-position="127" unicode-range="U+0020-007A"/>
<missing-glyph horiz-adv-x="32" d="M480 136v152h-153v-152h153zM632 314v153h-305v-153h305zM480 492v153h-153v-153h153zM632 671v151h-152q-64 0 -108 -44q-45 -45 -45 -107h305zM0 0v960h960v-960h-960z"/>
    <glyph glyph-name=".notdef" horiz-adv-x="32" d="M480 136v152h-153v-152h153zM632 314v153h-305v-153h305zM480 492v153h-153v-153h153zM632 671v151h-152q-64 0 -108 -44q-45 -45 -45 -107h305zM0 0v960h960v-960h-960z"/>
    <glyph glyph-name="glyph1" horiz-adv-x="32"/>
    <glyph glyph-name="glyph2" horiz-adv-x="224"/>
    <glyph glyph-name="space" unicode=" " horiz-adv-x="640"/>
    <glyph glyph-name="exclam" unicode="!" horiz-adv-x="255" d="M96 0v0h-1q-13 0 -22 9t-9 23v32q0 13 9 22t23 9v1h32v-1q13 0 22 -9q10 -9 10 -22v-32q0 -14 -10 -23q-9 -9 -22 -9v0v0h-32zM96 224v0h-1q-13 0 -22 9t-9 23v672q0 13 9 22t23 9v1h32v-1q13 0 22 -9q10 -9 10 -22v-672q0 -14 -10 -23q-9 -9 -22 -9v0v0h-32z"/>
    <glyph glyph-name="quotedbl" unicode="&quot;" horiz-adv-x="319" d="M96 832v0h-1q-13 0 -22 9t-9 23v64q0 13 9 22t23 9v1v0v-1q13 0 22 -9q10 -9 10 -22v-64q0 -14 -10 -23q-9 -9 -22 -9v0v0zM192 832v0h-1q-13 0 -22 9t-9 23v64q0 13 9 22t23 9v1v0v-1q13 0 22 -9q10 -9 10 -22v-64q0 -14 -10 -23q-9 -9 -22 -9v0v0z"/>
    <glyph glyph-name="dollar" unicode="$" d="M416 96q13 0 22 9q9 8 10 20v69q-1 12 -10 20q-9 10 -22 10h-64v-128h64zM256 320v544h-64q-14 0 -23 -10q-9 -8 -9 -20v-485v0q0 -12 9 -20q9 -9 23 -9h64zM96 0v0h-1q-13 0 -22 9t-9 23v32q0 13 9 22t23 9v1h160v128h-160v0h-1q-13 0 -22 9t-9 23v672q0 13 9 22t23 9v1 h416v-1q13 0 22 -9q10 -9 10 -22v-480q0 -14 -10 -23q-9 -9 -22 -9v0v0h-32v0h-1q-13 0 -22 9t-9 23v386q-1 12 -10 20q-9 10 -22 10h-64v-544h160v-1q13 0 22 -9q10 -9 10 -22v-256q0 -14 -10 -23q-9 -9 -22 -9v0v0h-416z"/>
    <glyph glyph-name="quotesingle" unicode="'" horiz-adv-x="224" d="M96 832v0h-1q-13 0 -22 9t-9 23v64q0 13 9 22t23 9v1v0v-1q13 0 22 -9q10 -9 10 -22v-64q0 -14 -10 -23q-9 -9 -22 -9v0v0z"/>
    <glyph glyph-name="asterisk" unicode="*" horiz-adv-x="288" d="M128 800v0v0v0v0zM128 800v0h-1q-13 0 -22 9t-9 23v0h-1q-13 0 -22 9t-9 23q0 13 9 22t23 9v0v1q0 13 9 22t23 9v0v1v-1v0v1v-1v0q13 0 22 -9q10 -9 10 -22v-1v0q13 0 22 -9q10 -9 10 -22q0 -14 -10 -23q-9 -9 -22 -9v0v0q0 -14 -10 -23q-9 -9 -22 -9v0v0v0v0v0v0z"/>
    <glyph glyph-name="comma" unicode="," horiz-adv-x="224" d="M96 -64v1h-1q-13 0 -22 9t-9 22v64q0 13 9 22t23 9v1v-1v1v-1q13 0 22 -9q10 -9 10 -22v-64q0 -13 -10 -22q-9 -9 -22 -9v-1v1v-1v0z"/>
    <glyph glyph-name="period" unicode="." horiz-adv-x="224" d="M96 0v0v0v0v0zM96 0v0h-1q-13 0 -22 9t-9 23q0 13 9 22t23 9v0v1v-1v0v1v-1v0q13 0 22 -9q10 -9 10 -22q0 -14 -10 -23q-9 -9 -22 -9v0v0v0v0v0z"/>
    <glyph glyph-name="zero" unicode="0" d="M96 0v0h-1q-13 0 -22 9t-9 23v896q0 13 9 22t23 9v1h160v-96h-64q-14 0 -23 -10q-9 -8 -9 -20v-709v0q0 -12 9 -20q9 -9 23 -9h64v-96h-160zM352 0v96h64q13 0 22 9q9 8 10 20v709q-1 12 -10 20q-9 10 -22 10h-64v96h160v-1q13 0 22 -9q10 -9 10 -22v-896q0 -14 -10 -23 q-9 -9 -22 -9v0v0h-160z"/>
    <glyph glyph-name="one" unicode="1" d="M96 0v0h-1q-13 0 -22 9t-9 23v32q0 13 9 22t23 9v1h128q13 0 22 9q9 8 10 20v709q-1 12 -10 20q-9 10 -22 10h-128v0h-1q-13 0 -22 9t-9 23v32q0 13 9 22t23 9v1h224v-1q13 0 22 -9q10 -9 10 -22v-803q0 -12 9 -20q9 -9 23 -9h128v-1q13 0 22 -9q10 -9 10 -22v-32 q0 -14 -10 -23q-9 -9 -22 -9v0v0h-416z"/>
    <glyph glyph-name="two" unicode="2" d="M96 0v0h-1q-13 0 -22 9t-9 23v256q0 13 9 22t23 9v1h320q13 0 22 9q9 8 10 20v485q-1 12 -10 20q-9 10 -22 10h-320v0h-1q-13 0 -22 9t-9 23v32q0 13 9 22t23 9v1h416v-1q13 0 22 -9q10 -9 10 -22v-672q0 -14 -10 -23q-9 -9 -22 -9v0v0h-320q-14 0 -23 -10q-9 -8 -9 -20 v-69v0q0 -12 9 -20q9 -9 23 -9h320v-1q13 0 22 -9q10 -9 10 -22v-32q0 -14 -10 -23q-9 -9 -22 -9v0v0h-416z"/>
    <glyph glyph-name="three" unicode="3" d="M96 0v0h-1q-13 0 -22 9t-9 23v32q0 13 9 22t23 9v1h320q13 0 22 9q9 8 10 20v69q-1 12 -10 20q-9 10 -22 10h-320v0h-1q-13 0 -22 9t-9 23v32q0 13 9 22t23 9v1h320q13 0 22 9q9 8 10 20v485q-1 12 -10 20q-9 10 -22 10h-320v0h-1q-13 0 -22 9t-9 23v32q0 13 9 22t23 9v1 h416v-1q13 0 22 -9q10 -9 10 -22v-896q0 -14 -10 -23q-9 -9 -22 -9v0v0h-416z"/>
    <glyph glyph-name="four" unicode="4" d="M480 0v0h-1q-13 0 -22 9t-9 23v162q-1 12 -10 20q-9 10 -22 10h-320v0h-1q-13 0 -22 9t-9 23v672q0 13 9 22t23 9v1h32v-1q13 0 22 -9q10 -9 10 -22v-579v0q0 -12 9 -20q9 -9 23 -9h224q13 0 22 9q9 8 10 20v579q0 13 9 22t23 9v1h32v-1q13 0 22 -9q10 -9 10 -22v-896 q0 -14 -10 -23q-9 -9 -22 -9v0v0h-32z"/>
    <glyph glyph-name="five" unicode="5" d="M96 0v0h-1q-13 0 -22 9t-9 23v32q0 13 9 22t23 9v1h320q13 0 22 9q9 8 10 20v69q-1 12 -10 20q-9 10 -22 10h-320v0h-1q-13 0 -22 9t-9 23v672q0 13 9 22t23 9v1h416v-1q13 0 22 -9q10 -9 10 -22v-32q0 -14 -10 -23q-9 -9 -22 -9v0v0h-320q-14 0 -23 -10q-9 -8 -9 -20 v-485v0q0 -12 9 -20q9 -9 23 -9h320v-1q13 0 22 -9q10 -9 10 -22v-256q0 -14 -10 -23q-9 -9 -22 -9v0v0h-416z"/>
    <glyph glyph-name="six" unicode="6" d="M416 96q13 0 22 9q9 8 10 20v69q-1 12 -10 20q-9 10 -22 10h-224q-14 0 -23 -10q-9 -8 -9 -20v-69q0 -12 9 -20q9 -9 23 -9h224zM96 0v0h-1q-13 0 -22 9t-9 23v896q0 13 9 22t23 9v1h416v-1q13 0 22 -9q10 -9 10 -22v-32q0 -14 -10 -23q-9 -9 -22 -9v0v0h-320 q-14 0 -23 -10q-9 -8 -9 -20v-485v0q0 -12 9 -20q9 -9 23 -9h320v-1q13 0 22 -9q10 -9 10 -22v-256q0 -14 -10 -23q-9 -9 -22 -9v0v0h-416z"/>
    <glyph glyph-name="seven" unicode="7" d="M480 0v0h-1q-13 0 -22 9t-9 23v802q-1 12 -10 20q-9 10 -22 10h-320v0h-1q-13 0 -22 9t-9 23v32q0 13 9 22t23 9v1h416v-1q13 0 22 -9q10 -9 10 -22v-896q0 -14 -10 -23q-9 -9 -22 -9v0v0h-32z"/>
    <glyph glyph-name="eight" unicode="8" d="M416 96q13 0 22 9q9 8 10 20v69q-1 12 -10 20q-9 10 -22 10h-224q-14 0 -23 -10q-9 -8 -9 -20v-69q0 -12 9 -20q9 -9 23 -9h224zM416 320q13 0 22 9q9 8 10 20v485q-1 12 -10 20q-9 10 -22 10h-224q-14 0 -23 -10q-9 -8 -9 -20v-485v0q0 -12 9 -20q9 -9 23 -9h224zM96 0 v0h-1q-13 0 -22 9t-9 23v896q0 13 9 22t23 9v1h416v-1q13 0 22 -9q10 -9 10 -22v-896q0 -14 -10 -23q-9 -9 -22 -9v0v0h-416z"/>
    <glyph glyph-name="nine" unicode="9" d="M416 320q13 0 22 9q9 8 10 20v485q-1 12 -10 20q-9 10 -22 10h-224q-14 0 -23 -10q-9 -8 -9 -20v-485v0q0 -12 9 -20q9 -9 23 -9h224zM96 0v0h-1q-13 0 -22 9t-9 23v32q0 13 9 22t23 9v1h320q13 0 22 9q9 8 10 20v69q-1 12 -10 20q-9 10 -22 10h-320v0h-1q-13 0 -22 9 t-9 23v672q0 13 9 22t23 9v1h416v-1q13 0 22 -9q10 -9 10 -22v-896q0 -14 -10 -23q-9 -9 -22 -9v0v0h-416z"/>
    <glyph glyph-name="question" unicode="?" d="M96 0v0h-1q-13 0 -22 9t-9 23v32q0 13 9 22t23 9v1h32v-1q13 0 22 -9q10 -9 10 -22v-32q0 -14 -10 -23q-9 -9 -22 -9v0v0h-32zM96 224v0h-1q-13 0 -22 9t-9 23v32q0 13 9 22t23 9v1h320q13 0 22 9q9 8 10 20v485q-1 12 -10 20q-9 10 -22 10h-320v0h-1q-13 0 -22 9t-9 23 v32q0 13 9 22t23 9v1h416v-1q13 0 22 -9q10 -9 10 -22v-672q0 -14 -10 -23q-9 -9 -22 -9v0v0h-416z"/>
    <glyph glyph-name="at" unicode="@" d="M416 288q13 0 22 9q9 8 10 20v325q-1 12 -10 20q-9 10 -22 10h-32q-14 0 -23 -10q-9 -8 -9 -20v-325q0 -12 9 -20q9 -9 23 -9h32zM96 0v0h-1q-13 0 -22 9t-9 23v896q0 13 9 22t23 9v1h416v-1q13 0 22 -9q10 -9 10 -22v-704q0 -14 -10 -23q-9 -9 -22 -9v0v0h-224v0h-1 q-13 0 -22 9t-9 23v512q0 13 9 22t23 9v1h128q13 0 22 9q9 8 10 20v37q-1 12 -10 20q-9 10 -22 10h-224q-14 0 -23 -10q-9 -8 -9 -20v-709v0q0 -12 9 -20q9 -9 23 -9h320v-1q13 0 22 -9q10 -9 10 -22v-32q0 -14 -10 -23q-9 -9 -22 -9v0v0h-416z"/>
    <glyph glyph-name="A" unicode="A" d="M416 320q13 0 22 9q9 8 10 20v485q-1 12 -10 20q-9 10 -22 10h-224q-14 0 -23 -10q-9 -8 -9 -20v-485q0 -12 9 -20q9 -9 23 -9h224zM96 0v0h-1q-13 0 -22 9t-9 23v896q0 13 9 22t23 9v1h416v-1q13 0 22 -9q10 -9 10 -22v-896q0 -14 -10 -23q-9 -9 -22 -9v0v0h-32v0 q-14 0 -23 9t-9 23v162q-1 12 -10 20q-9 10 -22 10h-224q-14 0 -23 -10q-9 -8 -9 -20v-162q0 -14 -10 -23q-9 -9 -22 -9v0v0h-32z"/>
    <glyph glyph-name="B" unicode="B" d="M416 96q13 0 22 9q9 8 10 20v69q-1 12 -10 20q-9 10 -22 10h-224q-14 0 -23 -10q-9 -8 -9 -20v-69q0 -12 9 -20q9 -9 23 -9h224zM416 320q13 0 22 9q9 8 10 20v485q-1 12 -10 20q-9 10 -22 10h-224q-14 0 -23 -10q-9 -8 -9 -20v-485q0 -12 9 -20q9 -9 23 -9h224zM96 0v0 h-1q-13 0 -22 9t-9 23v896q0 13 9 22t23 9v1h416v-1q13 0 22 -9q10 -9 10 -22v-608l-32 -32v0h-1l-15 -16l16 -16v-1l32 -31v-192q0 -14 -10 -23q-9 -9 -22 -9v0v0h-416z"/>
    <glyph glyph-name="C" unicode="C" d="M96 0v0h-1q-13 0 -22 9t-9 23v896q0 13 9 22t23 9v1h416v-1q13 0 22 -9q10 -9 10 -22v-480q0 -14 -10 -23q-9 -9 -22 -9v0v0h-32v0h-1q-13 0 -22 9t-9 23v386q-1 12 -10 20q-9 10 -22 10h-224q-14 0 -23 -10q-9 -8 -9 -20v-709q0 -12 9 -20q9 -9 23 -9h224q13 0 22 9 q9 8 10 20v163q0 13 9 22t23 9v1h32v-1q13 0 22 -9q10 -9 10 -22v-256q0 -14 -10 -23q-9 -9 -22 -9v0v0h-416z"/>
    <glyph glyph-name="D" unicode="D" d="M416 96q13 0 22 9q9 8 10 20v709q-1 12 -10 20q-9 10 -22 10h-256v-768h256zM64 0v960h448v-1q13 0 22 -9q10 -9 10 -22v-896q0 -14 -10 -23q-9 -9 -22 -9v0v0h-448z"/>
    <glyph glyph-name="E" unicode="E" d="M96 0v0h-1q-13 0 -22 9t-9 23v896q0 13 9 22t23 9v1h416v-1q13 0 22 -9q10 -9 10 -22v-32q0 -14 -10 -23q-9 -9 -22 -9v0v0h-320q-14 0 -23 -10q-9 -8 -9 -20v-485v0q0 -12 9 -20q9 -9 23 -9h320v-1q13 0 22 -9q10 -9 10 -22v-32q0 -14 -10 -23q-9 -9 -22 -9v0v0h-320 q-14 0 -23 -10q-9 -8 -9 -20v-69v0q0 -12 9 -20q9 -9 23 -9h320v-1q13 0 22 -9q10 -9 10 -22v-32q0 -14 -10 -23q-9 -9 -22 -9v0v0h-416z"/>
    <glyph glyph-name="F" unicode="F" d="M96 0v0h-1q-13 0 -22 9t-9 23v896q0 13 9 22t23 9v1h416v-1q13 0 22 -9q10 -9 10 -22v-32q0 -14 -10 -23q-9 -9 -22 -9v0v0h-320q-14 0 -23 -10q-9 -8 -9 -20v-485v0q0 -12 9 -20q9 -9 23 -9h320v-1q13 0 22 -9q10 -9 10 -22v-32q0 -14 -10 -23q-9 -9 -22 -9v0v0h-320 q-14 0 -23 -10q-9 -8 -9 -20v-162q0 -14 -10 -23q-9 -9 -22 -9v0v0h-32z"/>
    <glyph glyph-name="G" unicode="G" d="M96 0v0h-1q-13 0 -22 9t-9 23v896q0 13 9 22t23 9v1h416v-1q13 0 22 -9q10 -9 10 -22v-480q0 -14 -10 -23q-9 -9 -22 -9v0v0h-32v0h-1q-13 0 -22 9t-9 23v386q-1 12 -10 20q-9 10 -22 10h-224q-14 0 -23 -10q-9 -8 -9 -20v-709q0 -12 9 -20q9 -9 23 -9h224q13 0 22 9 q9 8 10 20v99h-64v0h-1q-13 0 -22 9t-9 23v32q0 13 9 22t23 9v1h128v-1q13 0 22 -9q10 -9 10 -22v-256q0 -14 -10 -23q-9 -9 -22 -9v0v0h-416z"/>
    <glyph glyph-name="H" unicode="H" d="M96 0v0h-1q-13 0 -22 9t-9 23v896q0 13 9 22t23 9v1h32v-1q13 0 22 -9q10 -9 10 -22v-579q0 -12 9 -20q9 -9 23 -9h224q13 0 22 9q9 8 10 20v579q0 13 9 22t23 9v1h32v-1q13 0 22 -9q10 -9 10 -22v-896q0 -14 -10 -23q-9 -9 -22 -9v0v0h-32v0q-14 0 -23 9t-9 23v162 q-1 12 -10 20q-9 10 -22 10h-224q-14 0 -23 -10q-9 -8 -9 -20v-162q0 -14 -10 -23q-9 -9 -22 -9v0v0h-32z"/>
    <glyph glyph-name="I" unicode="I" d="M96 0v0h-1q-13 0 -22 9t-9 23v32q0 13 9 22t23 9v1h128q13 0 22 9q9 8 10 20v709q-1 12 -10 20q-9 10 -22 10h-128v0h-1q-13 0 -22 9t-9 23v32q0 13 9 22t23 9v1h416v-1q13 0 22 -9q10 -9 10 -22v-32q0 -14 -10 -23q-9 -9 -22 -9v0v0h-128q-14 0 -23 -10q-9 -8 -9 -20 v-709q0 -12 9 -20q9 -9 23 -9h128v-1q13 0 22 -9q10 -9 10 -22v-32q0 -14 -10 -23q-9 -9 -22 -9v0v0h-416z"/>
    <glyph glyph-name="J" unicode="J" d="M96 0v0h-1q-13 0 -22 9t-9 23v256q0 13 9 22t23 9v1h32v-1q13 0 22 -9q10 -9 10 -22v-163q0 -12 9 -20q9 -9 23 -9h224q13 0 22 9q9 8 10 20v709q-1 12 -10 20q-9 10 -22 10h-128v0h-1q-13 0 -22 9t-9 23v32q0 13 9 22t23 9v1h224v-1q13 0 22 -9q10 -9 10 -22v-896 q0 -14 -10 -23q-9 -9 -22 -9v0v0h-416z"/>
    <glyph glyph-name="K" unicode="K" d="M96 0v0h-1q-13 0 -22 9t-9 23v896q0 13 9 22t23 9v1h32v-1q13 0 22 -9q10 -9 10 -22v-579v0q0 -12 9 -20q9 -9 23 -9h224q13 0 22 9q9 8 10 20v579q0 13 9 22t23 9v1h32v-1q13 0 22 -9q10 -9 10 -22v-608l-32 -32v0h-1l-15 -16l16 -16v-1l32 -31v-192q0 -14 -10 -23 q-9 -9 -22 -9v0v0h-32v0q-14 0 -23 9t-9 23v162q-1 12 -10 20q-9 10 -22 10h-224q-14 0 -23 -10q-9 -8 -9 -20v-162q0 -14 -10 -23q-9 -9 -22 -9v0v0h-32z"/>
    <glyph glyph-name="L" unicode="L" d="M96 0v0h-1q-13 0 -22 9t-9 23v896q0 13 9 22t23 9v1h32v-1q13 0 22 -9q10 -9 10 -22v-803q0 -12 9 -20q9 -9 23 -9h224q13 0 22 9q9 8 10 20v163q0 13 9 22t23 9v1h32v-1q13 0 22 -9q10 -9 10 -22v-256q0 -14 -10 -23q-9 -9 -22 -9v0v0h-416z"/>
    <glyph glyph-name="M" unicode="M" d="M96 0v0h-1q-13 0 -22 9t-9 23v896q0 13 9 22t23 9v1h416v-1q13 0 22 -9q10 -9 10 -22v-896q0 -14 -10 -23q-9 -9 -22 -9v0h-32v0h-1q-13 0 -22 9t-9 23v802q-1 12 -10 20q-9 10 -22 10h-32q-14 0 -23 -10q-9 -8 -9 -20v-802q0 -14 -10 -23q-9 -9 -22 -9v0v0h-32v0 q-14 0 -23 9t-9 23v802q-1 12 -10 20q-9 10 -22 10h-32q-14 0 -23 -10q-9 -8 -9 -20v-802q0 -14 -10 -23q-9 -9 -22 -9v0v0h-32z"/>
    <glyph glyph-name="N" unicode="N" d="M96 0v0h-1q-13 0 -22 9t-9 23v896q0 13 9 22t23 9v1h224v-1q13 0 22 -9q10 -9 10 -22v-803q0 -12 9 -20q9 -9 23 -9h32q13 0 22 9q9 8 10 20v803q0 13 9 22t23 9v1h32v-1q13 0 22 -9q10 -9 10 -22v-896q0 -14 -10 -23q-9 -9 -22 -9v0v0h-224v0q-14 0 -23 9t-9 23v802 q-1 12 -10 20q-9 10 -22 10h-32q-14 0 -23 -10q-9 -8 -9 -20v-802q0 -14 -10 -23q-9 -9 -22 -9v0v0h-32z"/>
    <glyph glyph-name="O" unicode="O" d="M416 96q13 0 22 9q9 8 10 20v709q-1 12 -10 20q-9 10 -22 10h-224q-14 0 -23 -10q-9 -8 -9 -20v-709q0 -12 9 -20q9 -9 23 -9h224zM96 0v0h-1q-13 0 -22 9t-9 23v896q0 13 9 22t23 9v1h416v-1q13 0 22 -9q10 -9 10 -22v-896q0 -14 -10 -23q-9 -9 -22 -9v0v0h-416z"/>
    <glyph glyph-name="P" unicode="P" d="M416 320q13 0 22 9q9 8 10 20v485q-1 12 -10 20q-9 10 -22 10h-224q-14 0 -23 -10q-9 -8 -9 -20v-485v0q0 -12 9 -20q9 -9 23 -9h224zM96 0v0h-1q-13 0 -22 9t-9 23v896q0 13 9 22t23 9v1h416v-1q13 0 22 -9q10 -9 10 -22v-672q0 -14 -10 -23q-9 -9 -22 -9v0v0h-320 q-14 0 -23 -10q-9 -8 -9 -20v-162q0 -14 -10 -23q-9 -9 -22 -9v0v0h-32z"/>
    <glyph glyph-name="Q" unicode="Q" d="M320 96q13 0 22 9q9 8 10 20v163q0 13 9 22t23 9v1h32q13 0 22 9q9 8 10 20v485q-1 12 -10 20q-9 10 -22 10h-224q-14 0 -23 -10q-9 -8 -9 -20v-709q0 -12 9 -20q9 -9 23 -9h128zM96 0v0h-1q-13 0 -22 9t-9 23v896q0 13 9 22t23 9v1h416v-1q13 0 22 -9q10 -9 10 -22v-896 q0 -14 -10 -23q-9 -9 -22 -9v0v0h-416z"/>
    <glyph glyph-name="R" unicode="R" d="M416 320q13 0 22 9q9 8 10 20v485q-1 12 -10 20q-9 10 -22 10h-224q-14 0 -23 -10q-9 -8 -9 -20v-485v0q0 -12 9 -20q9 -9 23 -9h224zM96 0v0h-1q-13 0 -22 9t-9 23v896q0 13 9 22t23 9v1h416v-1q13 0 22 -9q10 -9 10 -22v-608l-32 -32v0h-1l-15 -16l16 -16v-1l32 -31 v-192q0 -14 -10 -23q-9 -9 -22 -9v0v0h-32v0q-14 0 -23 9t-9 23v162q-1 12 -10 20q-9 10 -22 10h-224q-14 0 -23 -10q-9 -8 -9 -20v-162q0 -14 -10 -23q-9 -9 -22 -9v0v0h-32z"/>
    <glyph glyph-name="S" unicode="S" d="M96 0v0h-1q-13 0 -22 9t-9 23v32q0 13 9 22t23 9v1h320q13 0 22 9q9 8 10 20v69q-1 12 -10 20q-9 10 -22 10h-320v0h-1q-13 0 -22 9t-9 23v672q0 13 9 22t23 9v1h416v-1q13 0 22 -9q10 -9 10 -22v-480q0 -14 -10 -23q-9 -9 -22 -9v0v0h-32v0h-1q-13 0 -22 9t-9 23v386 q-1 12 -10 20q-9 10 -22 10h-224q-14 0 -23 -10q-9 -8 -9 -20v-485v0q0 -12 9 -20q9 -9 23 -9h320v-1q13 0 22 -9q10 -9 10 -22v-256q0 -14 -10 -23q-9 -9 -22 -9v0v0h-416z"/>
    <glyph glyph-name="T" unicode="T" d="M288 0v0h-1q-13 0 -22 9t-9 23v802q-1 12 -10 20q-9 10 -22 10h-128v0h-1q-13 0 -22 9t-9 23v32q0 13 9 22t23 9v1h416v-1q13 0 22 -9q10 -9 10 -22v-32q0 -14 -10 -23q-9 -9 -22 -9v0v0h-128q-14 0 -23 -10q-9 -8 -9 -20v-802q0 -14 -10 -23q-9 -9 -22 -9v0v0h-32z"/>
    <glyph glyph-name="U" unicode="U" d="M96 0v0h-1q-13 0 -22 9t-9 23v896q0 13 9 22t23 9v1h32v-1q13 0 22 -9q10 -9 10 -22v-803q0 -12 9 -20q9 -9 23 -9h224q13 0 22 9q9 8 10 20v803q0 13 9 22t23 9v1h32v-1q13 0 22 -9q10 -9 10 -22v-896q0 -14 -10 -23q-9 -9 -22 -9v0v0h-416z"/>
    <glyph glyph-name="V" unicode="V" d="M192 0v0h-1q-13 0 -22 9t-9 23v162q-1 12 -10 20q-9 10 -22 10h-32v0h-1q-13 0 -22 9t-9 23v672q0 13 9 22t23 9v1h32v-1q13 0 22 -9q10 -9 10 -22v-579v0q0 -12 9 -20q9 -9 23 -9h32v-1q13 0 22 -9q10 -9 10 -22v-163v0q0 -12 9 -20q9 -9 23 -9h32q13 0 22 9q9 8 10 20 v163q0 13 9 22t23 9v1h32q13 0 22 9q9 8 10 20v579q0 13 9 22t23 9v1h32v-1q13 0 22 -9q10 -9 10 -22v-672q0 -14 -10 -23q-9 -9 -22 -9v0v0h-32q-14 0 -23 -10q-9 -8 -9 -20v-162q0 -14 -10 -23q-9 -9 -22 -9v0v0h-224z"/>
    <glyph glyph-name="W" unicode="W" d="M96 0v0h-1q-13 0 -22 9t-9 23v896q0 13 9 22t23 9v1h32v-1q13 0 22 -9q10 -9 10 -22v-803q0 -12 9 -20q9 -9 23 -9h32q13 0 22 9q9 8 10 20v803q0 13 9 22t23 9v1h32v-1q13 0 22 -9q10 -9 10 -22v-803q0 -12 9 -20q9 -9 23 -9h32q13 0 22 9q9 8 10 20v803q0 13 9 22t23 9 v1h32v-1q13 0 22 -9q10 -9 10 -22v-896q0 -14 -10 -23q-9 -9 -22 -9v0v0h-416z"/>
    <glyph glyph-name="X" unicode="X" d="M96 0v0h-1q-13 0 -22 9t-9 23v192l32 31v1l16 16l-16 16v0v0l-32 32v608q0 13 9 22t23 9v1h32v-1q13 0 22 -9q10 -9 10 -22v-579v0q0 -12 9 -20q9 -9 23 -9h224q13 0 22 9q9 8 10 20v579q0 13 9 22t23 9v1h32v-1q13 0 22 -9q10 -9 10 -22v-608l-32 -32v0h-1l-15 -16 l16 -16v-1l32 -31v-192q0 -14 -10 -23q-9 -9 -22 -9v0v0h-32v0h-1q-13 0 -22 9t-9 23v162q-1 12 -10 20q-9 10 -22 10h-224q-14 0 -23 -10q-9 -8 -9 -20v-162q0 -14 -10 -23q-9 -9 -22 -9v0v0h-32z"/>
    <glyph glyph-name="Y" unicode="Y" d="M96 0v0h-1q-13 0 -22 9t-9 23v32q0 13 9 22t23 9v1h320q13 0 22 9q9 8 10 20v69q-1 12 -10 20q-9 10 -22 10h-320v0h-1q-13 0 -22 9t-9 23v672q0 13 9 22t23 9v1h32v-1q13 0 22 -9q10 -9 10 -22v-579v0q0 -12 9 -20q9 -9 23 -9h224q13 0 22 9q9 8 10 20v579q0 13 9 22 t23 9v1h32v-1q13 0 22 -9q10 -9 10 -22v-896q0 -14 -10 -23q-9 -9 -22 -9v0v0h-416z"/>
    <glyph glyph-name="Z" unicode="Z" d="M96 0v0h-1q-13 0 -22 9t-9 23v64l32 63v1l32 63v1l32 63v1l32 63v1l32 63v1l32 63v1l32 63v1l32 63v1l32 63v1l32 63v1l32 63v1l32 63v1h-352v0h-1q-13 0 -22 9t-9 23v32q0 13 9 22t23 9v1h416v-1q13 0 22 -9q10 -9 10 -22v-96l-32 -64v0l-32 -64v0l-32 -64v0l-32 -64v0 l-32 -64v0l-32 -64v0l-32 -64v0l-32 -64v0l-32 -64v0l-32 -64v0l-32 -64v0l-16 -32h240q13 0 22 9q9 8 10 20v163q0 13 9 22t23 9v1h32v-1q13 0 22 -9q10 -9 10 -22v-256q0 -14 -10 -23q-9 -9 -22 -9v0v0h-416z"/>
    <glyph glyph-name="underscore" unicode="_" horiz-adv-x="640" d="M96 0v0h-1q-13 0 -22 9t-9 23v32q0 13 9 22t23 9v0v1h416v-1v0q13 0 22 -9q10 -9 10 -22v-32q0 -14 -10 -23q-9 -9 -22 -9v0v0h-416z"/>
    <glyph glyph-name="a" unicode="a" d="M416 96q13 0 22 9q9 8 10 20v69q-1 12 -10 20q-9 10 -22 10h-224q-14 0 -23 -10q-9 -8 -9 -20v-69q0 -12 9 -20q9 -9 23 -9h224zM96 416v0h-1q-13 0 -22 9t-9 23v480q0 13 9 22t23 9v1h32v-1q13 0 22 -9q10 -9 10 -22v-480q0 -14 -10 -23q-9 -9 -22 -9v0v0h-32zM288 416 v0q-14 0 -23 9t-9 23v480q0 13 9 22t23 9v1h32v-1q13 0 22 -9q10 -9 10 -22v-480q0 -14 -10 -23q-9 -9 -22 -9v0v0h-32zM96 0v0h-1q-13 0 -22 9t-9 23v256q0 13 9 22t23 9v1h320q13 0 22 9q9 8 10 20v579q0 13 9 22t23 9v1h32v-1q13 0 22 -9q10 -9 10 -22v-896 q0 -14 -10 -23q-9 -9 -22 -9v0v0h-416z"/>
    <glyph glyph-name="b" unicode="b" d="M416 96q13 0 22 9q9 8 10 20v69q-1 12 -10 20q-9 10 -22 10h-224q-14 0 -23 -10q-9 -8 -9 -20v-69q0 -12 9 -20q9 -9 23 -9h224zM288 416v0h-1q-13 0 -22 9t-9 23v160q0 13 9 22t23 9v1h32v-1q13 0 22 -9q10 -9 10 -22v-160q0 -14 -10 -23q-9 -9 -22 -9v0v0h-32zM96 0v0 h-1q-13 0 -22 9t-9 23v896q0 13 9 22t23 9v1h32v-1q13 0 22 -9q10 -9 10 -22v-579v0q0 -12 9 -20q9 -9 23 -9h320v-1q13 0 22 -9q10 -9 10 -22v-256q0 -14 -10 -23q-9 -9 -22 -9v0v0h-416zM288 736v0h-1q-13 0 -22 9t-9 23v160q0 13 9 22t23 9v1h32v-1q13 0 22 -9 q10 -9 10 -22v-160q0 -14 -10 -23q-9 -9 -22 -9v0v0h-32zM480 416v0h-1q-13 0 -22 9t-9 23v480q0 13 9 22t23 9v1h32v-1q13 0 22 -9q10 -9 10 -22v-480q0 -14 -10 -23q-9 -9 -22 -9v0h-32z"/>
    <glyph glyph-name="c" unicode="c" d="M96 0v0h-1q-13 0 -22 9t-9 23v896q0 13 9 22t23 9v1h416v-1q13 0 22 -9q10 -9 10 -22v-480q0 -14 -10 -23q-9 -9 -22 -9v0v0h-224v0h-1q-13 0 -22 9t-9 23v32q0 13 9 22t23 9v1h128q13 0 22 9q9 8 10 20v293q-1 12 -10 20q-9 10 -22 10h-224q-14 0 -23 -10q-9 -8 -9 -20 v-709q0 -12 9 -20q9 -9 23 -9h224q13 0 22 9q9 8 10 20v69q-1 12 -10 20q-9 10 -22 10h-128v0h-1q-13 0 -22 9t-9 23v32q0 13 9 22t23 9v1h224v-1q13 0 22 -9q10 -9 10 -22v-256q0 -14 -10 -23q-9 -9 -22 -9v0v0h-416z"/>
    <glyph glyph-name="d" unicode="d" d="M416 96q13 0 22 9q9 8 10 20v69q-1 12 -10 20q-9 10 -22 10h-224q-14 0 -23 -10q-9 -8 -9 -20v-69q0 -12 9 -20q9 -9 23 -9h224zM96 0v0h-1q-13 0 -22 9t-9 23v256q0 13 9 22t23 9v1h320q13 0 22 9q9 8 10 20v485q-1 12 -10 20q-9 10 -22 10h-32q-14 0 -23 -10 q-9 -8 -9 -20v-386q0 -14 -10 -23q-9 -9 -22 -9v0v0h-224v0h-1q-13 0 -22 9t-9 23v480q0 13 9 22t23 9v1h32v-1q13 0 22 -9q10 -9 10 -22v-387v0q0 -12 9 -20q9 -9 23 -9h32q13 0 22 9q9 8 10 20v387q0 13 9 22t23 9v1h224v-1q13 0 22 -9q10 -9 10 -22v-896q0 -14 -10 -23 q-9 -9 -22 -9v0v0h-416z"/>
    <glyph glyph-name="e" unicode="e" d="M96 0v0h-1q-13 0 -22 9t-9 23v32q0 13 9 22t23 9v1h416v-1q13 0 22 -9q10 -9 10 -22v-32q0 -14 -10 -23q-9 -9 -22 -9v0v0h-416zM96 224v0h-1q-13 0 -22 9t-9 23v672q0 13 9 22t23 9v1h416v-1q13 0 22 -9q10 -9 10 -22v-672q0 -14 -10 -23q-9 -9 -22 -9v0h-128v0h-1 q-13 0 -22 9t-9 23v32q0 13 9 22t23 9v1h32q13 0 22 9q9 8 10 20v165q-1 12 -10 20q-9 10 -22 10h-32v0h-1q-13 0 -22 9t-9 23v32q0 13 9 22t23 9v1h32q13 0 22 9q9 8 10 20v165q-1 12 -10 20q-9 10 -22 10h-224q-14 0 -23 -10q-9 -8 -9 -20v-165v0q0 -12 9 -20q9 -9 23 -9 h32v-1q13 0 22 -9q10 -9 10 -22v-32q0 -14 -10 -23q-9 -9 -22 -9v0h-32q-14 0 -23 -10q-9 -8 -9 -20v-165q0 -12 9 -20q9 -9 23 -9h32v-1q13 0 22 -9q10 -9 10 -22v-32q0 -14 -10 -23q-9 -9 -22 -9v0v0h-128z"/>
    <glyph glyph-name="f" unicode="f" d="M288 416v0h-1q-13 0 -22 9t-9 23v32q0 13 9 22t23 9v1h224v-1q13 0 22 -9q10 -9 10 -22v-32q0 -14 -10 -23q-9 -9 -22 -9v0v0h-224zM288 672v0h-1q-13 0 -22 9t-9 23v32q0 13 9 22t23 9v1h224v-1q13 0 22 -9q10 -9 10 -22v-32q0 -14 -10 -23q-9 -9 -22 -9v0v0h-224zM96 0 v0h-1q-13 0 -22 9t-9 23v896q0 13 9 22t23 9v1h416v-1q13 0 22 -9q10 -9 10 -22v-64h-352q-14 0 -23 -10q-9 -8 -9 -20v-485v0q0 -12 9 -20q9 -9 23 -9h320v-1q13 0 22 -9q10 -9 10 -22v-32q0 -14 -10 -23q-9 -9 -22 -9v0v0h-320q-14 0 -23 -10q-9 -8 -9 -20v-162 q0 -14 -10 -23q-9 -9 -22 -9v0v0h-32z"/>
    <glyph glyph-name="g" unicode="g" d="M416 96q13 0 22 9q9 8 10 20v69q-1 12 -10 20q-9 10 -22 10h-32q-14 0 -23 -10q-9 -8 -9 -20v-69q0 -12 9 -20q9 -9 23 -9h32zM96 0v0h-1q-13 0 -22 9t-9 23v896q0 13 9 22t23 9v1h32v-1q13 0 22 -9q10 -9 10 -22v-803q0 -12 9 -20q9 -9 23 -9h32q13 0 22 9q9 8 10 20 v163q0 13 9 22t23 9v1h224v-1q13 0 22 -9q10 -9 10 -22v-256q0 -14 -10 -23q-9 -9 -22 -9v0v0h-416zM288 608v0h-1q-13 0 -22 9t-9 23v288q0 13 9 22t23 9v1h32v-1q13 0 22 -9q10 -9 10 -22v-288q0 -14 -10 -23q-9 -9 -22 -9v0v0h-32zM288 416v0h-1q-13 0 -22 9t-9 23v32 q0 13 9 22t23 9v1h128q13 0 22 9q9 8 10 20v387q0 13 9 22t23 9v1h32v-1q13 0 22 -9q10 -9 10 -22v-480q0 -14 -10 -23q-9 -9 -22 -9v0v0h-224z"/>
    <glyph glyph-name="h" unicode="h" d="M416 320q13 0 22 9q9 8 10 20v133q-1 12 -10 20q-9 10 -22 10h-224q-14 0 -23 -10q-9 -8 -9 -20v-133q0 -12 9 -20q9 -9 23 -9h224zM96 0v0h-1q-13 0 -22 9t-9 23v896q0 13 9 22t23 9v1h32v-1q13 0 22 -9q10 -9 10 -22v-291v0q0 -12 9 -20q9 -9 23 -9h320v-1q13 0 22 -9 q10 -9 10 -22v-544q0 -14 -10 -23q-9 -9 -22 -9v0v0h-32v0q-14 0 -23 9t-9 23v162q-1 12 -10 20q-9 10 -22 10h-224q-14 0 -23 -10q-9 -8 -9 -20v-162q0 -14 -10 -23q-9 -9 -22 -9v0v0h-32z"/>
    <glyph glyph-name="i" unicode="i" d="M96 320v0h-1q-13 0 -22 9t-9 23v32q0 13 9 22t23 9v1h32v-1q13 0 22 -9q10 -9 10 -22v-32q0 -14 -10 -23q-9 -9 -22 -9v0h-32zM480 320v0h-1q-13 0 -22 9t-9 23v32q0 13 9 22t23 9v1h32v-1q13 0 22 -9q10 -9 10 -22v-32q0 -14 -10 -23q-9 -9 -22 -9v0v0h-32zM96 0v0h-1 q-13 0 -22 9t-9 23v160q0 13 9 22t23 9v1h32v-1q13 0 22 -9q10 -9 10 -22v-67q0 -12 9 -20q9 -9 23 -9h32q13 0 22 9q9 8 10 20v709q-1 12 -10 20q-9 10 -22 10h-32q-14 0 -23 -10q-9 -8 -9 -20v-290q0 -14 -10 -23q-9 -9 -22 -9v0v0h-32v0h-1q-13 0 -22 9t-9 23v384 q0 13 9 22t23 9v1h416v-1q13 0 22 -9q10 -9 10 -22v-384q0 -14 -10 -23q-9 -9 -22 -9v0v0h-32v0h-1q-13 0 -22 9t-9 23v290q-1 12 -10 20q-9 10 -22 10h-32q-14 0 -23 -10q-9 -8 -9 -20v-709q0 -12 9 -20q9 -9 23 -9h32q13 0 22 9q9 8 10 20v67q0 13 9 22t23 9v1h32v-1 q13 0 22 -9q10 -9 10 -22v-160q0 -14 -10 -23q-9 -9 -22 -9v0v0h-416z"/>
    <glyph glyph-name="j" unicode="j" d="M96 480v0h-1q-13 0 -22 9t-9 23v32q0 13 9 22t23 9v1h224v-1q13 0 22 -9q10 -9 10 -22v-32q0 -14 -10 -23q-9 -9 -22 -9v0v0h-224zM96 0v0h-1q-13 0 -22 9t-9 23v160q0 13 9 22t23 9v1h32v-1q13 0 22 -9q10 -9 10 -22v-67q0 -12 9 -20q9 -9 23 -9h224q13 0 22 9 q9 8 10 20v709q-1 12 -10 20q-9 10 -22 10h-224q-14 0 -23 -10q-9 -8 -9 -20v-37v0q0 -12 9 -20q9 -9 23 -9h128v-1q13 0 22 -9q10 -9 10 -22v-32q0 -14 -10 -23q-9 -9 -22 -9v0v0h-224v0h-1q-13 0 -22 9t-9 23v224q0 13 9 22t23 9v1h416v-1q13 0 22 -9q10 -9 10 -22v-896 q0 -14 -10 -23q-9 -9 -22 -9v0v0h-416z"/>
    <glyph glyph-name="k" unicode="k" d="M288 0v0q-14 0 -23 9t-9 23v64q0 13 9 22t23 9v1h32v-1q13 0 22 -9q10 -9 10 -22v-64q0 -14 -10 -23q-9 -9 -22 -9v0v0h-32zM288 416v0h-1q-13 0 -22 9t-9 23v480q0 13 9 22t23 9v1h32v-1q13 0 22 -9q10 -9 10 -22v-480q0 -14 -10 -23q-9 -9 -22 -9v0v0h-32zM96 0v0h-1 q-13 0 -22 9t-9 23v896q0 13 9 22t23 9v1h32v-1q13 0 22 -9q10 -9 10 -22v-579q0 -12 9 -20q9 -9 23 -9h224q13 0 22 9q9 8 10 20v579q0 13 9 22t23 9v1h32v-1q13 0 22 -9q10 -9 10 -22v-896q0 -14 -10 -23q-9 -9 -22 -9v0h-32v0h-1q-13 0 -22 9t-9 23v162q-1 12 -10 20 q-9 10 -22 10h-224q-14 0 -23 -10q-9 -8 -9 -20v-162q0 -14 -10 -23q-9 -9 -22 -9v0v0h-32z"/>
    <glyph glyph-name="l" unicode="l" d="M96 0v0h-1q-13 0 -22 9t-9 23v896q0 13 9 22t23 9v1h32v-1q13 0 22 -9q10 -9 10 -22v-803q0 -12 9 -20q9 -9 23 -9h32q13 0 22 9q9 8 10 20v803q0 13 9 22t23 9v1h32v-1q13 0 22 -9q10 -9 10 -22v-803q0 -12 9 -20q9 -9 23 -9h32q13 0 22 9q9 8 10 20v67q0 13 9 22t23 9 v1h32v-1q13 0 22 -9q10 -9 10 -22v-160q0 -14 -10 -23q-9 -9 -22 -9v0v0h-416z"/>
    <glyph glyph-name="m" unicode="m" d="M256 736v98q-1 12 -10 20q-9 10 -22 10h-32v-1l32 -63v-1l32 -63v0zM352 736l32 63v1l32 63v1h-32q-14 0 -23 -10q-9 -8 -9 -20v-98v0zM96 0v0h-1q-13 0 -22 9t-9 23v896q0 13 9 22t23 9v1h416v-1q13 0 22 -9q10 -9 10 -22v-896q0 -14 -10 -23q-9 -9 -22 -9v0h-32v0h-1 q-13 0 -22 9t-9 23v735l-32 -63v0l-32 -64v0l-32 -64v-544q0 -14 -10 -23q-9 -9 -22 -9v0v0h-32v0q-14 0 -23 9t-9 23v544l-32 64v0l-32 64v0l-32 63v-735q0 -14 -10 -23q-9 -9 -22 -9v0v0h-32z"/>
    <glyph glyph-name="n" unicode="n" d="M416 96q13 0 22 9q9 8 10 20v69q-1 12 -10 20q-9 10 -22 10h-32q-14 0 -23 -10q-9 -8 -9 -20v-69q0 -12 9 -20q9 -9 23 -9h32zM288 416v0h-1q-13 0 -22 9t-9 23v32q0 13 9 22t23 9v1h32v-1q13 0 22 -9q10 -9 10 -22v-32q0 -14 -10 -23q-9 -9 -22 -9v0v0h-32zM288 864v0 h-1q-13 0 -22 9t-9 23v32q0 13 9 22t23 9v1h32v-1q13 0 22 -9q10 -9 10 -22v-32q0 -14 -10 -23q-9 -9 -22 -9v0v0h-32zM96 0v0h-1q-13 0 -22 9t-9 23v896q0 13 9 22t23 9v1h32v-1q13 0 22 -9q10 -9 10 -22v-579v0q0 -12 9 -20q9 -9 23 -9h224q13 0 22 9q9 8 10 20v579 q0 13 9 22t23 9v1h32v-1q13 0 22 -9q10 -9 10 -22v-896q0 -14 -10 -23q-9 -9 -22 -9v0v0h-224v0q-14 0 -23 9t-9 23v162q-1 12 -10 20q-9 10 -22 10h-32q-14 0 -23 -10q-9 -8 -9 -20v-162q0 -14 -10 -23q-9 -9 -22 -9v0v0h-32z"/>
    <glyph glyph-name="o" unicode="o" d="M224 96q13 0 22 9q9 8 10 20v709q-1 12 -10 20q-9 10 -22 10h-32q-14 0 -23 -10q-9 -8 -9 -20v-709q0 -12 9 -20q9 -9 23 -9h32zM416 96q13 0 22 9q9 8 10 20v709q-1 12 -10 20q-9 10 -22 10h-32q-14 0 -23 -10q-9 -8 -9 -20v-709q0 -12 9 -20q9 -9 23 -9h32zM96 0v0h-1 q-13 0 -22 9t-9 23v896q0 13 9 22t23 9v1h416v-1q13 0 22 -9q10 -9 10 -22v-896q0 -14 -10 -23q-9 -9 -22 -9v0v0h-416z"/>
    <glyph glyph-name="p" unicode="p" d="M224 320q13 0 22 9q9 8 10 20v485q-1 12 -10 20q-9 10 -22 10h-32q-14 0 -23 -10q-9 -8 -9 -20v-485q0 -12 9 -20q9 -9 23 -9h32zM416 320q13 0 22 9q9 8 10 20v485q-1 12 -10 20q-9 10 -22 10h-32q-14 0 -23 -10q-9 -8 -9 -20v-485q0 -12 9 -20q9 -9 23 -9h32zM96 0v0 h-1q-13 0 -22 9t-9 23v896q0 13 9 22t23 9v1h416v-1q13 0 22 -9q10 -9 10 -22v-672q0 -14 -10 -23q-9 -9 -22 -9v0v0h-160v-192q0 -14 -10 -23q-9 -9 -22 -9v0v0h-32v0q-14 0 -23 9t-9 23v162q-1 12 -10 20q-9 10 -22 10h-32q-14 0 -23 -10q-9 -8 -9 -20v-162q0 -14 -10 -23 q-9 -9 -22 -9v0v0h-32z"/>
    <glyph glyph-name="q" unicode="q" d="M320 96q13 0 22 9q9 8 10 20v163q0 13 9 22t23 9v1h32q13 0 22 9q9 8 10 20v197q-1 12 -10 20q-9 10 -22 10h-224q-14 0 -23 -10q-9 -8 -9 -20v-421q0 -12 9 -20q9 -9 23 -9h128zM416 672q13 0 22 9q9 8 10 20v133q-1 12 -10 20q-9 10 -22 10h-224q-14 0 -23 -10 q-9 -8 -9 -20v-133v0q0 -12 9 -20q9 -9 23 -9h224zM96 0v0h-1q-13 0 -22 9t-9 23v896q0 13 9 22t23 9v1h416v-1q13 0 22 -9q10 -9 10 -22v-896q0 -14 -10 -23q-9 -9 -22 -9v0v0h-416z"/>
    <glyph glyph-name="r" unicode="r" d="M96 0v0h-1q-13 0 -22 9t-9 23v896q0 13 9 22t23 9v1h416v-1q13 0 22 -9q10 -9 10 -22v-896q0 -14 -10 -23q-9 -9 -22 -9v0h-32v0h-1q-13 0 -22 9t-9 23v258q-1 12 -10 20q-9 10 -22 10h-32q-14 0 -23 -10q-9 -8 -9 -20v-258q0 -14 -10 -23q-9 -9 -22 -9v0v0h-32v0 q-14 0 -23 9t-9 23v352q0 13 9 22t23 9v1h128q13 0 22 9q9 8 10 20v389q-1 12 -10 20q-9 10 -22 10h-224q-14 0 -23 -10q-9 -8 -9 -20v-802q0 -14 -10 -23q-9 -9 -22 -9v0v0h-32z"/>
    <glyph glyph-name="s" unicode="s" d="M96 0v0h-1q-13 0 -22 9t-9 23v32q0 13 9 22t23 9v1h32v-1q13 0 22 -9q10 -9 10 -22v-32q0 -14 -10 -23q-9 -9 -22 -9v0v0h-32zM288 0v0q-14 0 -23 9t-9 23v162q-1 12 -10 20q-9 10 -22 10h-128v0h-1q-13 0 -22 9t-9 23v672q0 13 9 22t23 9v1h32v-1q13 0 22 -9 q10 -9 10 -22v-579v0q0 -12 9 -20q9 -9 23 -9h32q13 0 22 9q9 8 10 20v579q0 13 9 22t23 9v1h32v-1q13 0 22 -9q10 -9 10 -22v-579q0 -12 9 -20q9 -9 23 -9h128v-1q13 0 22 -9q10 -9 10 -22v-256q0 -14 -10 -23q-9 -9 -22 -9v0h-32v0h-1q-13 0 -22 9t-9 23v162q-1 12 -10 20 q-9 10 -22 10h-32q-14 0 -23 -10q-9 -8 -9 -20v-162q0 -14 -10 -23q-9 -9 -22 -9v0v0h-32zM480 416v0h-1q-13 0 -22 9t-9 23v480q0 13 9 22t23 9v1h32v-1q13 0 22 -9q10 -9 10 -22v-480q0 -14 -10 -23q-9 -9 -22 -9v0v0h-32z"/>
    <glyph glyph-name="t" unicode="t" d="M96 0v0h-1q-13 0 -22 9t-9 23v32q0 13 9 22t23 9v1h32v-1q13 0 22 -9q10 -9 10 -22v-32q0 -14 -10 -23q-9 -9 -22 -9v0v0h-32zM480 0v0h-1q-13 0 -22 9t-9 23v32q0 13 9 22t23 9v1h32v-1q13 0 22 -9q10 -9 10 -22v-32q0 -14 -10 -23q-9 -9 -22 -9v0h-32zM288 0v0 q-14 0 -23 9t-9 23v802q-1 12 -10 20q-9 10 -22 10h-32q-14 0 -23 -10q-9 -8 -9 -20v-610q0 -14 -10 -23q-9 -9 -22 -9v0v0h-32v0h-1q-13 0 -22 9t-9 23v704q0 13 9 22t23 9v1h416v-1q13 0 22 -9q10 -9 10 -22v-704q0 -14 -10 -23q-9 -9 -22 -9v0v0h-32v0h-1q-13 0 -22 9 t-9 23v610q-1 12 -10 20q-9 10 -22 10h-32q-14 0 -23 -10q-9 -8 -9 -20v-802q0 -14 -10 -23q-9 -9 -22 -9v0v0h-32z"/>
    <glyph glyph-name="u" unicode="u" d="M224 96q13 0 22 9q9 8 10 20v69q-1 12 -10 20q-9 10 -22 10h-32q-14 0 -23 -10q-9 -8 -9 -20v-69q0 -12 9 -20q9 -9 23 -9h32zM416 96q13 0 22 9q9 8 10 20v69q-1 12 -10 20q-9 10 -22 10h-32q-14 0 -23 -10q-9 -8 -9 -20v-69q0 -12 9 -20q9 -9 23 -9h32zM224 320 q13 0 22 9q9 8 10 20v69q-1 12 -10 20q-9 10 -22 10h-32q-14 0 -23 -10q-9 -8 -9 -20v-69v0q0 -12 9 -20q9 -9 23 -9h32zM416 320q13 0 22 9q9 8 10 20v69q-1 12 -10 20q-9 10 -22 10h-32q-14 0 -23 -10q-9 -8 -9 -20v-69q0 -12 9 -20q9 -9 23 -9h32zM96 0v0h-1q-13 0 -22 9 t-9 23v896q0 13 9 22t23 9v1h32v-1q13 0 22 -9q10 -9 10 -22v-355v0q0 -12 9 -20q9 -9 23 -9h32q13 0 22 9q9 8 10 20v387h96v-387q0 -12 9 -20q9 -9 23 -9h32q13 0 22 9q9 8 10 20v355q0 13 9 22t23 9v1h32v-1q13 0 22 -9q10 -9 10 -22v-896q0 -14 -10 -23q-9 -9 -22 -9v0 v0h-416z"/>
    <glyph glyph-name="v" unicode="v" d="M192 0v0h-1q-13 0 -22 9t-9 23v162q-1 12 -10 20q-9 10 -22 10h-32v0h-1q-13 0 -22 9t-9 23v672q0 13 9 22t23 9v1h32v-1q13 0 22 -9q10 -9 10 -22v-579v0q0 -12 9 -20q9 -9 23 -9h32v-1q13 0 22 -9q9 -8 10 -20v638q0 13 9 22t23 9v1h32v-1q13 0 22 -9q10 -9 10 -22 v-638q0 12 9 20q9 9 23 9v1h32q13 0 22 9q9 8 10 20v579q0 13 9 22t23 9v1h32v-1q13 0 22 -9q10 -9 10 -22v-672q0 -14 -10 -23q-9 -9 -22 -9v0v0h-32q-14 0 -23 -10q-9 -8 -9 -20v-162q0 -14 -10 -23q-9 -9 -22 -9v0v0h-224z"/>
    <glyph glyph-name="w" unicode="w" d="M224 96q13 0 22 9q9 8 10 20v69q-1 12 -10 20q-9 10 -22 10h-32q-14 0 -23 -10q-9 -8 -9 -20v-69q0 -12 9 -20q9 -9 23 -9h32zM416 96q13 0 22 9q9 8 10 20v69q-1 12 -10 20q-9 10 -22 10h-32q-14 0 -23 -10q-9 -8 -9 -20v-69q0 -12 9 -20q9 -9 23 -9h32zM96 0v0h-1 q-13 0 -22 9t-9 23v896q0 13 9 22t23 9v1h32v-1q13 0 22 -9q10 -9 10 -22v-579v0q0 -12 9 -20q9 -9 23 -9h32q13 0 22 9q9 8 10 20v579q0 13 9 22t23 9v1h32v-1q13 0 22 -9q10 -9 10 -22v-579q0 -12 9 -20q9 -9 23 -9h32q13 0 22 9q9 8 10 20v579q0 13 9 22t23 9v1h32v-1 q13 0 22 -9q10 -9 10 -22v-896q0 -14 -10 -23q-9 -9 -22 -9v0v0h-416z"/>
    <glyph glyph-name="x" unicode="x" d="M288 96v0h-1q-13 0 -22 9t-9 23v32q0 13 9 22t23 9v1h32v-1q13 0 22 -9q10 -9 10 -22v-32q0 -14 -10 -23q-9 -9 -22 -9v0v0h-32zM96 0v0h-1q-13 0 -22 9t-9 23v896q0 13 9 22t23 9v1h32v-1q13 0 22 -9q10 -9 10 -22v-579v0q0 -12 9 -20q9 -9 23 -9h32q13 0 22 9 q9 8 10 20v579q0 13 9 22t23 9v1h32v-1q13 0 22 -9q10 -9 10 -22v-579q0 -12 9 -20q9 -9 23 -9h32q13 0 22 9q9 8 10 20v579q0 13 9 22t23 9v1h32v-1q13 0 22 -9q10 -9 10 -22v-896q0 -14 -10 -23q-9 -9 -22 -9v0v0h-32v0h-1q-13 0 -22 9t-9 23v162q-1 12 -10 20 q-9 10 -22 10h-224q-14 0 -23 -10q-9 -8 -9 -20v-162q0 -14 -10 -23q-9 -9 -22 -9v0v0h-32z"/>
    <glyph glyph-name="y" unicode="y" d="M96 0v0h-1q-13 0 -22 9t-9 23v32q0 13 9 22t23 9v1h416v-1q13 0 22 -9q10 -9 10 -22v-32q0 -14 -10 -23q-9 -9 -22 -9v0v0h-416zM96 224v0h-1q-13 0 -22 9t-9 23v672q0 13 9 22t23 9v1h32v-1q13 0 22 -9q10 -9 10 -22v-672q0 -14 -10 -23q-9 -9 -22 -9v0v0h-32zM288 224 v0h-1q-13 0 -22 9t-9 23v672q0 13 9 22t23 9v1h32v-1q13 0 22 -9q10 -9 10 -22v-672q0 -14 -10 -23q-9 -9 -22 -9v0v0h-32zM480 224v0q-14 0 -23 9t-9 23v672q0 13 9 22t23 9v1h32v-1q13 0 22 -9q10 -9 10 -22v-672q0 -14 -10 -23q-9 -9 -22 -9v0v0h-32z"/>
    <glyph glyph-name="z" unicode="z" d="M96 0v0h-1q-13 0 -22 9t-9 23v32q0 13 9 22t23 9v1h416v-1q13 0 22 -9q10 -9 10 -22v-32q0 -14 -10 -23q-9 -9 -22 -9v0v0h-416zM96 192v0h-1q-13 0 -22 9t-9 23v320q0 13 9 22t23 9v1h32v-1q13 0 22 -9q10 -9 10 -22v-320q0 -14 -10 -23q-9 -9 -22 -9v0v0h-32zM288 192 v0h-1q-13 0 -22 9t-9 23v320q0 13 9 22t23 9v1h32v-1q13 0 22 -9q10 -9 10 -22v-320q0 -14 -10 -23q-9 -9 -22 -9v0v0h-32zM480 192v0q-14 0 -23 9t-9 23v320q0 13 9 22t23 9v1h32v-1q13 0 22 -9q10 -9 10 -22v-320q0 -14 -10 -23q-9 -9 -22 -9v0v0h-32zM96 672v0h-1 q-13 0 -22 9t-9 23v32q0 13 9 22t23 9v1h416v-1q13 0 22 -9q10 -9 10 -22v-32q0 -14 -10 -23q-9 -9 -22 -9v0v0h-416zM96 864v0h-1q-13 0 -22 9t-9 23v32q0 13 9 22t23 9v1h416v-1q13 0 22 -9q10 -9 10 -22v-32q0 -14 -10 -23q-9 -9 -22 -9v0v0h-416z"/>
  </font>
</defs>
</svg>
